<mxfile host="app.diagrams.net" agent="Mozilla/5.0 (Windows NT 10.0; Win64; x64) AppleWebKit/537.36 (KHTML, like Gecko) Chrome/131.0.0.0 Safari/537.36 Edg/131.0.0.0" version="25.0.3" pages="2">
  <diagram name="Pagina-1" id="G0i5ETv9kpLcA8MT5bO_">
    <mxGraphModel dx="1426" dy="755" grid="1" gridSize="10" guides="1" tooltips="1" connect="1" arrows="1" fold="1" page="1" pageScale="1" pageWidth="1169" pageHeight="827" math="0" shadow="0">
      <root>
        <mxCell id="0" />
        <mxCell id="1" parent="0" />
        <mxCell id="q93RriMEArBpGxhUV1Lp-16" style="edgeStyle=orthogonalEdgeStyle;rounded=0;orthogonalLoop=1;jettySize=auto;html=1;entryX=0;entryY=0.5;entryDx=0;entryDy=0;" edge="1" parent="1" source="q93RriMEArBpGxhUV1Lp-12" target="q93RriMEArBpGxhUV1Lp-14">
          <mxGeometry relative="1" as="geometry" />
        </mxCell>
        <mxCell id="q93RriMEArBpGxhUV1Lp-17" value="&lt;font style=&quot;font-size: 16px;&quot;&gt;level 2 INTERRUPT&lt;/font&gt;" style="edgeLabel;html=1;align=center;verticalAlign=middle;resizable=0;points=[];" vertex="1" connectable="0" parent="q93RriMEArBpGxhUV1Lp-16">
          <mxGeometry x="0.0375" y="-2" relative="1" as="geometry">
            <mxPoint y="-17" as="offset" />
          </mxGeometry>
        </mxCell>
        <mxCell id="q93RriMEArBpGxhUV1Lp-12" value="" style="rounded=0;whiteSpace=wrap;html=1;" vertex="1" parent="1">
          <mxGeometry x="280" y="190" width="200" height="150" as="geometry" />
        </mxCell>
        <mxCell id="q93RriMEArBpGxhUV1Lp-9" style="edgeStyle=orthogonalEdgeStyle;rounded=0;orthogonalLoop=1;jettySize=auto;html=1;entryX=0;entryY=0.5;entryDx=0;entryDy=0;" edge="1" parent="1" source="q93RriMEArBpGxhUV1Lp-5" target="q93RriMEArBpGxhUV1Lp-7">
          <mxGeometry relative="1" as="geometry" />
        </mxCell>
        <mxCell id="q93RriMEArBpGxhUV1Lp-5" value="" style="sketch=0;pointerEvents=1;shadow=0;dashed=0;html=1;strokeColor=none;fillColor=#434445;aspect=fixed;labelPosition=center;verticalLabelPosition=bottom;verticalAlign=top;align=center;outlineConnect=0;shape=mxgraph.vvd.keyboard;" vertex="1" parent="1">
          <mxGeometry x="140" y="262.25" width="50" height="35.5" as="geometry" />
        </mxCell>
        <mxCell id="q93RriMEArBpGxhUV1Lp-7" value="$45" style="rounded=0;whiteSpace=wrap;html=1;fontSize=16;" vertex="1" parent="1">
          <mxGeometry x="320" y="260" width="120" height="40" as="geometry" />
        </mxCell>
        <mxCell id="q93RriMEArBpGxhUV1Lp-10" value="&lt;b&gt;SDR&lt;/b&gt;" style="text;html=1;align=left;verticalAlign=middle;whiteSpace=wrap;rounded=0;fontSize=16;" vertex="1" parent="1">
          <mxGeometry x="320" y="230" width="120" height="30" as="geometry" />
        </mxCell>
        <mxCell id="q93RriMEArBpGxhUV1Lp-11" value="&lt;font style=&quot;font-size: 16px;&quot;&gt;Press or release ESC key&lt;/font&gt;" style="text;html=1;align=center;verticalAlign=middle;whiteSpace=wrap;rounded=0;" vertex="1" parent="1">
          <mxGeometry x="105" y="220" width="120" height="30" as="geometry" />
        </mxCell>
        <mxCell id="q93RriMEArBpGxhUV1Lp-13" value="&lt;b&gt;&lt;font style=&quot;font-size: 16px;&quot;&gt;CIAA&lt;/font&gt;&lt;/b&gt;" style="text;html=1;align=center;verticalAlign=middle;whiteSpace=wrap;rounded=0;" vertex="1" parent="1">
          <mxGeometry x="280" y="190" width="200" height="30" as="geometry" />
        </mxCell>
        <mxCell id="q93RriMEArBpGxhUV1Lp-14" value="" style="rounded=0;whiteSpace=wrap;html=1;" vertex="1" parent="1">
          <mxGeometry x="680" y="185" width="200" height="160" as="geometry" />
        </mxCell>
        <mxCell id="q93RriMEArBpGxhUV1Lp-15" value="&lt;b&gt;&lt;font style=&quot;font-size: 16px;&quot;&gt;CPU&lt;/font&gt;&lt;/b&gt;" style="text;html=1;align=center;verticalAlign=middle;whiteSpace=wrap;rounded=0;" vertex="1" parent="1">
          <mxGeometry x="680" y="185" width="200" height="30" as="geometry" />
        </mxCell>
      </root>
    </mxGraphModel>
  </diagram>
  <diagram name="Pagina-2" id="hF422rmVObhG65P_w3n3">
    <mxGraphModel dx="1426" dy="755" grid="1" gridSize="10" guides="1" tooltips="1" connect="1" arrows="1" fold="1" page="1" pageScale="1" pageWidth="1169" pageHeight="827" math="0" shadow="0">
      <root>
        <mxCell id="UBCGZy9wxEyPG9XHeTqa-0" />
        <mxCell id="UBCGZy9wxEyPG9XHeTqa-1" parent="UBCGZy9wxEyPG9XHeTqa-0" />
        <mxCell id="UBCGZy9wxEyPG9XHeTqa-4" value="" style="rounded=0;whiteSpace=wrap;html=1;" vertex="1" parent="UBCGZy9wxEyPG9XHeTqa-1">
          <mxGeometry x="280" y="180" width="200" height="240" as="geometry" />
        </mxCell>
        <mxCell id="UBCGZy9wxEyPG9XHeTqa-6" value="" style="sketch=0;pointerEvents=1;shadow=0;dashed=0;html=1;strokeColor=none;fillColor=#434445;aspect=fixed;labelPosition=center;verticalLabelPosition=bottom;verticalAlign=top;align=center;outlineConnect=0;shape=mxgraph.vvd.keyboard;" vertex="1" parent="UBCGZy9wxEyPG9XHeTqa-1">
          <mxGeometry x="140" y="262.25" width="50" height="35.5" as="geometry" />
        </mxCell>
        <mxCell id="5eJnfvpha3rNvdJ_dMFf-3" style="edgeStyle=orthogonalEdgeStyle;rounded=0;orthogonalLoop=1;jettySize=auto;html=1;" edge="1" parent="UBCGZy9wxEyPG9XHeTqa-1" source="UBCGZy9wxEyPG9XHeTqa-7" target="UBCGZy9wxEyPG9XHeTqa-6">
          <mxGeometry relative="1" as="geometry" />
        </mxCell>
        <mxCell id="UBCGZy9wxEyPG9XHeTqa-7" value="$FF" style="rounded=0;whiteSpace=wrap;html=1;fontSize=16;" vertex="1" parent="UBCGZy9wxEyPG9XHeTqa-1">
          <mxGeometry x="320" y="260" width="120" height="40" as="geometry" />
        </mxCell>
        <mxCell id="UBCGZy9wxEyPG9XHeTqa-8" value="&lt;b&gt;SDR&lt;/b&gt;" style="text;html=1;align=left;verticalAlign=middle;whiteSpace=wrap;rounded=0;fontSize=16;" vertex="1" parent="UBCGZy9wxEyPG9XHeTqa-1">
          <mxGeometry x="320" y="230" width="120" height="30" as="geometry" />
        </mxCell>
        <mxCell id="UBCGZy9wxEyPG9XHeTqa-9" value="&lt;font style=&quot;font-size: 16px;&quot;&gt;confirm data read&lt;/font&gt;" style="text;html=1;align=center;verticalAlign=middle;whiteSpace=wrap;rounded=0;" vertex="1" parent="UBCGZy9wxEyPG9XHeTqa-1">
          <mxGeometry x="105" y="220" width="120" height="30" as="geometry" />
        </mxCell>
        <mxCell id="UBCGZy9wxEyPG9XHeTqa-10" value="&lt;b&gt;&lt;font style=&quot;font-size: 16px;&quot;&gt;CIAA&lt;/font&gt;&lt;/b&gt;" style="text;html=1;align=center;verticalAlign=middle;whiteSpace=wrap;rounded=0;" vertex="1" parent="UBCGZy9wxEyPG9XHeTqa-1">
          <mxGeometry x="280" y="180" width="200" height="30" as="geometry" />
        </mxCell>
        <mxCell id="5eJnfvpha3rNvdJ_dMFf-0" style="edgeStyle=orthogonalEdgeStyle;rounded=0;orthogonalLoop=1;jettySize=auto;html=1;entryX=0.5;entryY=1;entryDx=0;entryDy=0;" edge="1" parent="UBCGZy9wxEyPG9XHeTqa-1" source="UBCGZy9wxEyPG9XHeTqa-11" target="UBCGZy9wxEyPG9XHeTqa-13">
          <mxGeometry relative="1" as="geometry" />
        </mxCell>
        <mxCell id="UBCGZy9wxEyPG9XHeTqa-11" value="" style="rounded=0;whiteSpace=wrap;html=1;" vertex="1" parent="UBCGZy9wxEyPG9XHeTqa-1">
          <mxGeometry x="650" y="220" width="200" height="160" as="geometry" />
        </mxCell>
        <mxCell id="5eJnfvpha3rNvdJ_dMFf-2" style="edgeStyle=orthogonalEdgeStyle;rounded=0;orthogonalLoop=1;jettySize=auto;html=1;entryX=0.5;entryY=0;entryDx=0;entryDy=0;" edge="1" parent="UBCGZy9wxEyPG9XHeTqa-1" source="UBCGZy9wxEyPG9XHeTqa-12" target="UBCGZy9wxEyPG9XHeTqa-7">
          <mxGeometry relative="1" as="geometry" />
        </mxCell>
        <mxCell id="UBCGZy9wxEyPG9XHeTqa-12" value="&lt;b&gt;&lt;font style=&quot;font-size: 16px;&quot;&gt;CPU&lt;/font&gt;&lt;/b&gt;" style="text;html=1;align=center;verticalAlign=middle;whiteSpace=wrap;rounded=0;" vertex="1" parent="UBCGZy9wxEyPG9XHeTqa-1">
          <mxGeometry x="650" y="220" width="200" height="30" as="geometry" />
        </mxCell>
        <mxCell id="UBCGZy9wxEyPG9XHeTqa-13" value="%01000000" style="rounded=0;whiteSpace=wrap;html=1;fontSize=16;" vertex="1" parent="UBCGZy9wxEyPG9XHeTqa-1">
          <mxGeometry x="320" y="350" width="120" height="40" as="geometry" />
        </mxCell>
        <mxCell id="UBCGZy9wxEyPG9XHeTqa-14" value="&lt;b&gt;CRA&lt;/b&gt;" style="text;html=1;align=left;verticalAlign=middle;whiteSpace=wrap;rounded=0;fontSize=16;" vertex="1" parent="UBCGZy9wxEyPG9XHeTqa-1">
          <mxGeometry x="320" y="320" width="120" height="30" as="geometry" />
        </mxCell>
        <mxCell id="5eJnfvpha3rNvdJ_dMFf-1" value="&lt;font style=&quot;font-size: 16px;&quot;&gt;sets bit 6&lt;/font&gt;" style="text;html=1;align=center;verticalAlign=middle;whiteSpace=wrap;rounded=0;" vertex="1" parent="UBCGZy9wxEyPG9XHeTqa-1">
          <mxGeometry x="370" y="430" width="100" height="30" as="geometry" />
        </mxCell>
      </root>
    </mxGraphModel>
  </diagram>
</mxfile>
